<mxfile host="app.diagrams.net" modified="2023-03-12T16:01:06.574Z" agent="5.0 (Windows NT 10.0; Win64; x64) AppleWebKit/537.36 (KHTML, like Gecko) Chrome/110.0.0.0 Safari/537.36" etag="Zrr_dPay50WUonUazDBr" version="21.0.6" type="github">
  <diagram name="第 1 页" id="w29HF2uwLt3AnNHaCn8E">
    <mxGraphModel dx="2155" dy="865" grid="1" gridSize="10" guides="1" tooltips="1" connect="1" arrows="1" fold="1" page="1" pageScale="1" pageWidth="827" pageHeight="1169" math="0" shadow="0">
      <root>
        <mxCell id="0" />
        <mxCell id="1" parent="0" />
        <mxCell id="2uHP1eRLvYw1iQmTf_2a-1" value="" style="rounded=0;whiteSpace=wrap;html=1;fontStyle=1;strokeColor=#000000;labelBackgroundColor=none;fillColor=none;fontSize=18;" parent="1" vertex="1">
          <mxGeometry x="-150" y="260" width="1210" height="230" as="geometry" />
        </mxCell>
        <mxCell id="2uHP1eRLvYw1iQmTf_2a-5" value="" style="rounded=0;whiteSpace=wrap;html=1;fontStyle=1;strokeColor=#000000;labelBackgroundColor=none;fillColor=none;fontSize=18;" parent="1" vertex="1">
          <mxGeometry x="100" y="670" width="410" height="150" as="geometry" />
        </mxCell>
        <mxCell id="2uHP1eRLvYw1iQmTf_2a-12" value="" style="group;fontStyle=1;fontSize=14;" parent="1" connectable="0" vertex="1">
          <mxGeometry x="284" y="710" width="280" height="170" as="geometry" />
        </mxCell>
        <mxCell id="2uHP1eRLvYw1iQmTf_2a-44" value="数据明细层&lt;br /&gt;DWD" style="rounded=0;whiteSpace=wrap;html=1;fontStyle=1;strokeColor=#000000;labelBackgroundColor=none;fillColor=none;fontSize=18;" parent="1" vertex="1">
          <mxGeometry x="-310" y="500" width="140" height="150" as="geometry" />
        </mxCell>
        <mxCell id="2uHP1eRLvYw1iQmTf_2a-45" value="数据汇总层&lt;br /&gt;DWS" style="rounded=0;whiteSpace=wrap;html=1;fontStyle=1;strokeColor=#000000;labelBackgroundColor=none;fillColor=none;fontSize=18;" parent="1" vertex="1">
          <mxGeometry x="-309" y="260" width="139" height="230" as="geometry" />
        </mxCell>
        <mxCell id="2uHP1eRLvYw1iQmTf_2a-47" value="数据维度&lt;br /&gt;DIM" style="rounded=0;whiteSpace=wrap;html=1;fontStyle=1;strokeColor=#000000;labelBackgroundColor=none;fillColor=none;fontSize=18;" parent="1" vertex="1">
          <mxGeometry x="-310" y="670" width="140" height="150" as="geometry" />
        </mxCell>
        <mxCell id="2uHP1eRLvYw1iQmTf_2a-48" value="" style="rounded=0;whiteSpace=wrap;html=1;fontStyle=1;strokeColor=#000000;labelBackgroundColor=none;fillColor=none;fontSize=18;" parent="1" vertex="1">
          <mxGeometry x="-150" y="670" width="240" height="150" as="geometry" />
        </mxCell>
        <mxCell id="2uHP1eRLvYw1iQmTf_2a-49" value="用户" style="rounded=0;whiteSpace=wrap;html=1;strokeColor=#000000;fontSize=18;fontStyle=0" parent="1" diagramCategory="general" diagramName="Rectangle" vertex="1">
          <mxGeometry x="-140" y="680" width="220" height="40" as="geometry" />
        </mxCell>
        <mxCell id="2uHP1eRLvYw1iQmTf_2a-56" value="任务" style="rounded=0;whiteSpace=wrap;html=1;strokeColor=#000000;fontSize=18;fontStyle=0" parent="1" diagramCategory="general" diagramName="Rectangle" vertex="1">
          <mxGeometry x="110" y="675" width="220" height="45" as="geometry" />
        </mxCell>
        <mxCell id="2uHP1eRLvYw1iQmTf_2a-57" value="道具" style="rounded=0;whiteSpace=wrap;html=1;strokeColor=#000000;fontSize=18;fontStyle=0" parent="1" diagramCategory="general" diagramName="Rectangle" vertex="1">
          <mxGeometry x="110" y="725" width="220" height="45" as="geometry" />
        </mxCell>
        <mxCell id="2uHP1eRLvYw1iQmTf_2a-58" value="角色" style="rounded=0;whiteSpace=wrap;html=1;strokeColor=#000000;fontSize=18;fontStyle=0" parent="1" diagramCategory="general" diagramName="Rectangle" vertex="1">
          <mxGeometry x="-140" y="770" width="220" height="40" as="geometry" />
        </mxCell>
        <mxCell id="2uHP1eRLvYw1iQmTf_2a-63" value="" style="rounded=0;whiteSpace=wrap;html=1;fontStyle=1;strokeColor=#000000;labelBackgroundColor=none;fillColor=none;fontSize=18;" parent="1" vertex="1">
          <mxGeometry x="-150" y="500" width="1210" height="150" as="geometry" />
        </mxCell>
        <mxCell id="2uHP1eRLvYw1iQmTf_2a-64" value="角色登陆" style="rounded=0;whiteSpace=wrap;html=1;strokeColor=#000000;fontSize=18;fontStyle=0" parent="1" diagramCategory="general" diagramName="Rectangle" vertex="1">
          <mxGeometry x="-140" y="550" width="220" height="30" as="geometry" />
        </mxCell>
        <mxCell id="2uHP1eRLvYw1iQmTf_2a-68" value="角色创建" style="rounded=0;whiteSpace=wrap;html=1;strokeColor=#000000;fontSize=18;fontStyle=0" parent="1" diagramCategory="general" diagramName="Rectangle" vertex="1">
          <mxGeometry x="-140" y="510" width="220" height="30" as="geometry" />
        </mxCell>
        <mxCell id="HDzuA-LgXN-2LaE_DTJx-2" value="基础数据体系建设" style="rounded=0;whiteSpace=wrap;html=1;fontSize=17;" vertex="1" parent="1">
          <mxGeometry x="-309" y="850" width="819" height="40" as="geometry" />
        </mxCell>
        <mxCell id="HDzuA-LgXN-2LaE_DTJx-5" value="DID" style="rounded=0;whiteSpace=wrap;html=1;strokeColor=#000000;fontSize=18;fontStyle=0" diagramCategory="general" diagramName="Rectangle" vertex="1" parent="1">
          <mxGeometry x="-140" y="725" width="220" height="40" as="geometry" />
        </mxCell>
        <mxCell id="HDzuA-LgXN-2LaE_DTJx-6" value="商品" style="rounded=0;whiteSpace=wrap;html=1;strokeColor=#000000;fontSize=18;fontStyle=0" diagramCategory="general" diagramName="Rectangle" vertex="1" parent="1">
          <mxGeometry x="110" y="772.5" width="220" height="45" as="geometry" />
        </mxCell>
        <mxCell id="HDzuA-LgXN-2LaE_DTJx-7" value="角色邀请" style="rounded=0;whiteSpace=wrap;html=1;strokeColor=#000000;fontSize=18;fontStyle=0" diagramCategory="general" diagramName="Rectangle" vertex="1" parent="1">
          <mxGeometry x="-140" y="590" width="220" height="30" as="geometry" />
        </mxCell>
        <mxCell id="HDzuA-LgXN-2LaE_DTJx-8" value="积分获取" style="rounded=0;whiteSpace=wrap;html=1;strokeColor=#000000;fontSize=18;fontStyle=0" diagramCategory="general" diagramName="Rectangle" vertex="1" parent="1">
          <mxGeometry x="110" y="550" width="220" height="30" as="geometry" />
        </mxCell>
        <mxCell id="HDzuA-LgXN-2LaE_DTJx-9" value="积分使用" style="rounded=0;whiteSpace=wrap;html=1;strokeColor=#000000;fontSize=18;fontStyle=0" diagramCategory="general" diagramName="Rectangle" vertex="1" parent="1">
          <mxGeometry x="110" y="590" width="220" height="30" as="geometry" />
        </mxCell>
        <mxCell id="HDzuA-LgXN-2LaE_DTJx-10" value="交易行交易明细" style="rounded=0;whiteSpace=wrap;html=1;strokeColor=#000000;fontSize=18;fontStyle=0" diagramCategory="general" diagramName="Rectangle" vertex="1" parent="1">
          <mxGeometry x="600" y="510" width="220" height="30" as="geometry" />
        </mxCell>
        <mxCell id="HDzuA-LgXN-2LaE_DTJx-11" value="任务明细" style="rounded=0;whiteSpace=wrap;html=1;strokeColor=#000000;fontSize=18;fontStyle=0" diagramCategory="general" diagramName="Rectangle" vertex="1" parent="1">
          <mxGeometry x="110" y="510" width="220" height="30" as="geometry" />
        </mxCell>
        <mxCell id="HDzuA-LgXN-2LaE_DTJx-12" value="道具变更明细" style="rounded=0;whiteSpace=wrap;html=1;strokeColor=#000000;fontSize=18;fontStyle=0" diagramCategory="general" diagramName="Rectangle" vertex="1" parent="1">
          <mxGeometry x="350" y="555" width="220" height="30" as="geometry" />
        </mxCell>
        <mxCell id="HDzuA-LgXN-2LaE_DTJx-13" value="道具购买明细" style="rounded=0;whiteSpace=wrap;html=1;strokeColor=#000000;fontSize=18;fontStyle=0" diagramCategory="general" diagramName="Rectangle" vertex="1" parent="1">
          <mxGeometry x="350" y="510" width="220" height="30" as="geometry" />
        </mxCell>
        <mxCell id="HDzuA-LgXN-2LaE_DTJx-14" value="订单交易明细" style="rounded=0;whiteSpace=wrap;html=1;strokeColor=#000000;fontSize=18;fontStyle=0" diagramCategory="general" diagramName="Rectangle" vertex="1" parent="1">
          <mxGeometry x="600" y="550" width="220" height="30" as="geometry" />
        </mxCell>
        <mxCell id="HDzuA-LgXN-2LaE_DTJx-15" value="角色资产轻度汇总" style="rounded=0;whiteSpace=wrap;html=1;strokeColor=#000000;fontSize=18;fontStyle=0" diagramCategory="general" diagramName="Rectangle" vertex="1" parent="1">
          <mxGeometry x="-130" y="290" width="220" height="30" as="geometry" />
        </mxCell>
        <mxCell id="HDzuA-LgXN-2LaE_DTJx-16" value="停留时长" style="rounded=0;whiteSpace=wrap;html=1;strokeColor=#000000;fontSize=18;fontStyle=0" diagramCategory="general" diagramName="Rectangle" vertex="1" parent="1">
          <mxGeometry x="-130" y="340" width="220" height="30" as="geometry" />
        </mxCell>
      </root>
    </mxGraphModel>
  </diagram>
</mxfile>
